<svg xmlns="http://www.w3.org/2000/svg" version="1.1" xmlns:xlink="http://www.w3.org/1999/xlink" xmlns:svgjs="http://svgjs.dev/svgjs" viewBox="0 0 800 800" opacity="0.83"><defs><linearGradient x1="50%" y1="0%" x2="50%" y2="100%" id="ggglitch-grad"><stop stop-color="hsla(200, 79%, 46%, 1.00)" stop-opacity="1" offset="45%"></stop><stop stop-color="rgb(25, 170, 212)" stop-opacity="1" offset="100%"></stop></linearGradient><clipPath id="SvgjsClipPath3166"><rect width="42.10526315789474" height="800" x="0" y="0"></rect><rect width="42.10526315789474" height="800" x="84.21052631578948" y="0"></rect><rect width="42.10526315789474" height="800" x="168.42105263157896" y="0"></rect><rect width="42.10526315789474" height="800" x="252.63157894736844" y="0"></rect><rect width="42.10526315789474" height="800" x="336.8421052631579" y="0"></rect><rect width="42.10526315789474" height="800" x="421.0526315789474" y="0"></rect><rect width="42.10526315789474" height="800" x="505.2631578947369" y="0"></rect><rect width="42.10526315789474" height="800" x="589.4736842105264" y="0"></rect><rect width="42.10526315789474" height="800" x="673.6842105263158" y="0"></rect><rect width="42.10526315789474" height="800" x="757.8947368421053" y="0"></rect><rect width="42.10526315789474" height="800" x="842.1052631578948" y="0"></rect><rect width="42.10526315789474" height="800" x="926.3157894736843" y="0"></rect><rect width="42.10526315789474" height="800" x="1010.5263157894738" y="0"></rect><rect width="42.10526315789474" height="800" x="1094.7368421052633" y="0"></rect><rect width="42.10526315789474" height="800" x="1178.9473684210527" y="0"></rect><rect width="42.10526315789474" height="800" x="1263.157894736842" y="0"></rect><rect width="42.10526315789474" height="800" x="1347.3684210526317" y="0"></rect><rect width="42.10526315789474" height="800" x="1431.5789473684213" y="0"></rect><rect width="42.10526315789474" height="800" x="1515.7894736842106" y="0"></rect><rect width="42.10526315789474" height="800" x="1600" y="0"></rect></clipPath><clipPath id="SvgjsClipPath3167"><rect width="42.10526315789474" height="800" x="42.10526315789474" y="0"></rect><rect width="42.10526315789474" height="800" x="126.31578947368422" y="0"></rect><rect width="42.10526315789474" height="800" x="210.5263157894737" y="0"></rect><rect width="42.10526315789474" height="800" x="294.7368421052632" y="0"></rect><rect width="42.10526315789474" height="800" x="378.94736842105266" y="0"></rect><rect width="42.10526315789474" height="800" x="463.15789473684214" y="0"></rect><rect width="42.10526315789474" height="800" x="547.3684210526317" y="0"></rect><rect width="42.10526315789474" height="800" x="631.578947368421" y="0"></rect><rect width="42.10526315789474" height="800" x="715.7894736842106" y="0"></rect><rect width="42.10526315789474" height="800" x="800" y="0"></rect><rect width="42.10526315789474" height="800" x="884.2105263157896" y="0"></rect><rect width="42.10526315789474" height="800" x="968.421052631579" y="0"></rect><rect width="42.10526315789474" height="800" x="1052.6315789473686" y="0"></rect><rect width="42.10526315789474" height="800" x="1136.842105263158" y="0"></rect><rect width="42.10526315789474" height="800" x="1221.0526315789473" y="0"></rect><rect width="42.10526315789474" height="800" x="1305.2631578947369" y="0"></rect><rect width="42.10526315789474" height="800" x="1389.4736842105265" y="0"></rect><rect width="42.10526315789474" height="800" x="1473.6842105263158" y="0"></rect><rect width="42.10526315789474" height="800" x="1557.8947368421052" y="0"></rect></clipPath></defs><g stroke-width="45" stroke="url(#ggglitch-grad)" fill="none"><circle r="367.5" cx="400" cy="400" fill="none" opacity="0.34" clip-path="url(&quot;#SvgjsClipPath3166&quot;)"></circle><circle r="286.5" cx="400" cy="400" fill="none" opacity="0.34" clip-path="url(&quot;#SvgjsClipPath3166&quot;)"></circle><circle r="205.5" cx="400" cy="400" fill="none" opacity="0.34" clip-path="url(&quot;#SvgjsClipPath3166&quot;)"></circle><circle r="124.5" cx="400" cy="400" fill="none" opacity="0.34" clip-path="url(&quot;#SvgjsClipPath3166&quot;)"></circle><circle r="43.5" cx="400" cy="400" fill="none" opacity="0.34" clip-path="url(&quot;#SvgjsClipPath3166&quot;)"></circle><circle r="377.5" cx="400" cy="400" fill="none" clip-path="url(&quot;#SvgjsClipPath3167&quot;)"></circle><circle r="296.5" cx="400" cy="400" fill="none" clip-path="url(&quot;#SvgjsClipPath3167&quot;)"></circle><circle r="215.5" cx="400" cy="400" fill="none" clip-path="url(&quot;#SvgjsClipPath3167&quot;)"></circle><circle r="134.5" cx="400" cy="400" fill="none" clip-path="url(&quot;#SvgjsClipPath3167&quot;)"></circle><circle r="53.5" cx="400" cy="400" fill="none" clip-path="url(&quot;#SvgjsClipPath3167&quot;)"></circle></g></svg>